<svg width="220" height="56" viewBox="0 0 220 56" fill="none" xmlns="http://www.w3.org/2000/svg">
	<defs>
		<linearGradient id="djoufBadge" x1="6" y1="6" x2="50" y2="50" gradientUnits="userSpaceOnUse">
			<stop stop-color="#102F8A"/>
			<stop offset="1" stop-color="#0A1E5C"/>
		</linearGradient>
	</defs>

	<circle cx="28" cy="28" r="25" fill="url(#djoufBadge)" stroke="#F6B21A" stroke-width="3"/>
	<path d="M18 38V18H25.2C30.5 18 33.5 20.6 33.5 25.1C33.5 29.6 30.4 32.3 25.2 32.3H21.6V38H18ZM21.6 29.3H25C28.1 29.3 29.9 27.9 29.9 25.1C29.9 22.3 28.1 21 25 21H21.6V29.3Z" fill="#FFFFFF"/>
	<path d="M34.4 38L41.2 18H45.2L52 38H48.1L46.6 33.5H39.7L38.2 38H34.4ZM40.6 30.7H45.7L43.2 23L40.6 30.7Z" fill="#F6B21A"/>

	<text x="64" y="24" fill="#FFFFFF" font-family="Georgia, serif" font-size="18" font-weight="700">Djouf Inter</text>
	<text x="64" y="42" fill="#D8E4FF" font-family="Arial, sans-serif" font-size="11" letter-spacing="1.2">BOISSONS PREMIUM</text>
</svg>
